<?xml version="1.0" encoding="utf-8"?>
<!DOCTYPE svg PUBLIC "-//W3C//DTD SVG 1.1//EN" "http://www.w3.org/Graphics/SVG/1.1/DTD/svg11.dtd">
<svg xmlns="http://www.w3.org/2000/svg" xml:space="preserve" width="48" height="48">
  <radialGradient id="a" cx="-487.8145" cy="432.8789" r="9.688" gradientTransform="matrix(2.1829 0 0 .7675 1089.1381 -290.8531)" gradientUnits="userSpaceOnUse">
    <stop offset="0"/>
    <stop offset="1" stop-opacity="0"/>
  </radialGradient>
  <path fill="url(#a)" d="M45.436 41.383c0 4.105-9.469 7.436-21.146 7.436-11.679 0-21.147-3.329-21.147-7.436 0-4.107 9.468-7.436 21.147-7.436 11.677 0 21.146 3.328 21.146 7.436z" opacity=".4091"/>
  <path fill="#F57900" stroke="#914900" stroke-linecap="round" stroke-linejoin="round" stroke-width=".9821" d="M45.088 21.404c0 11.482-9.309 20.79-20.79 20.79-11.482 0-20.791-9.308-20.791-20.79h0c0-11.482 9.308-20.79 20.791-20.79 11.481 0 20.79 9.308 20.79 20.79h0z"/>
  <path fill="none" stroke="#FCAF3E" stroke-linecap="round" stroke-linejoin="round" stroke-width=".9821" d="M44.555 21.313c0 11.111-9.006 20.117-20.117 20.117S4.32 32.424 4.32 21.313h0c0-11.111 9.007-20.118 20.118-20.118s20.117 9.007 20.117 20.118h0z"/>
  <path fill="#FFFEFF" fill-opacity=".2139" d="M43.676 20.477c0 10.832-6.052-4.306-18.674.387-12.723 4.729-20.567 10.445-20.567-.387C4.435 9.646 13.225.856 24.056.856s19.62 8.79 19.62 19.621z"/>
  <path fill="#FFF" d="M14.715 19.229h-1.389c-.766 0-1.389.621-1.389 1.389v1.389c0 .768.623 1.389 1.389 1.389h1.389c.766 0 1.389-.621 1.389-1.389v-1.389c0-.768-.623-1.389-1.389-1.389zm0 9.722h-1.389c-.766 0-1.389.621-1.389 1.389v1.389c0 .768.623 1.389 1.389 1.389h1.389c.766 0 1.389-.621 1.389-1.389V30.34c0-.768-.623-1.389-1.389-1.389zm0-19.444h-1.389c-.766 0-1.389.621-1.389 1.389v1.389c0 .768.623 1.389 1.389 1.389h1.389c.766 0 1.389-.621 1.389-1.389v-1.389c0-.769-.623-1.389-1.389-1.389zm20.834 19.444H20.271c-.767 0-1.389.621-1.389 1.389v1.389c0 .768.623 1.389 1.389 1.389h15.278c.766 0 1.389-.621 1.389-1.389V30.34c0-.768-.624-1.389-1.389-1.389zm0-9.722H20.271c-.767 0-1.389.621-1.389 1.389v1.389c0 .768.623 1.389 1.389 1.389h15.278c.766 0 1.389-.621 1.389-1.389v-1.389c0-.768-.624-1.389-1.389-1.389zm0-9.722H20.271c-.767 0-1.389.621-1.389 1.389v1.389c0 .768.623 1.389 1.389 1.389h15.278c.766 0 1.389-.621 1.389-1.389v-1.389c0-.769-.624-1.389-1.389-1.389z"/>
</svg>